<svg xmlns="http://www.w3.org/2000/svg" viewBox="0 0 1045.9 403.5"><style>.a{fill:#FFD100;}.b{fill:#959595;}.c{fill:#1A171B;}</style><path d="M1005.9 29.8c-12.9 0-23.3 10.4-23.3 23.3 0 12.9 10.5 23.3 23.3 23.3v14.8c-21.1 0-38.2-17.1-38.2-38.2 0-21.1 17.1-38.2 38.2-38.2V29.8zM1045.9 73.5h-13.6v17.8h-14.1V14.7h14.1v45h13.6V18.3C1036.2 7.1 1021.9 0 1005.9 0c-29.3 0-53.1 23.8-53.1 53.1 0 29.3 23.8 53.1 53.1 53.1 16 0 30.3-7.1 40-18.2V73.5z" class="a"/><path d="M284.5 80.4l6.6 13.1c-2.4 1.5-5.4 3.1-8.9 4.5 -3.4 1.5-7 2.9-10.7 4 -3.7 1.2-7.4 2.1-11 2.9 -3.6 0.7-6.8 1.1-9.7 1.1 -7.6 0-14.6-1.4-21.1-4.2 -6.5-2.8-12.1-6.5-17-11.4 -4.8-4.8-8.6-10.5-11.3-17 -2.7-6.5-4.1-13.4-4.1-20.7 0-7.2 1.4-14 4.2-20.4 2.8-6.4 6.6-12 11.3-16.9 4.8-4.8 10.4-8.6 17-11.4C236.3 1.4 243.3 0 250.8 0c3.2 0 6.6 0.2 10.1 0.7 3.6 0.5 7.1 1.2 10.6 2.1 3.5 0.9 6.9 2.1 10.1 3.5 3.2 1.5 6.2 3.2 8.8 5.3l-6 13.7c-5.3-4.3-10.8-7.4-16.4-9.2 -5.6-1.8-11.1-2.7-16.6-2.7 -5.3 0-10.2 1-15 3.1 -4.7 2.1-8.9 4.9-12.5 8.4 -3.6 3.5-6.5 7.7-8.6 12.5 -2.2 4.8-3.2 9.9-3.2 15.5 0 5.5 1 10.6 3.1 15.3 2.1 4.8 4.9 9 8.4 12.6 3.5 3.6 7.7 6.5 12.3 8.5 4.7 2.1 9.6 3.2 14.9 3.2 6.2 0 11.9-1.1 17.1-3.2C273.1 87.3 278.6 84.3 284.5 80.4" class="b"/><path d="M326.6 92.6c1.5 0 3.1-0.3 5-1 1.9-0.6 3.8-1.4 5.6-2.3 1.8-0.9 3.5-1.8 5.1-2.7 1.6-0.9 2.7-1.7 3.5-2.2V70.3c-2.3 0.3-4.9 0.8-8 1.5 -3.1 0.7-6 1.5-8.9 2.6 -2.8 1.1-5.2 2.4-7.3 3.9 -2 1.5-3 3.4-3 5.5 0 2.5 0.8 4.5 2.4 6.3 1.6 1.7 3.4 2.5 5.5 2.5V92.6zM358.7 52.5v49.1H345.9v-4.5c-3.3 1.6-6.7 3.1-10.1 4.5 -3.4 1.3-6.5 2-9.2 2 -3 0-5.8-0.5-8.4-1.5 -2.6-1-4.9-2.4-6.8-4.2 -1.9-1.8-3.4-3.9-4.5-6.3 -1.1-2.3-1.7-4.9-1.7-7.5 0-4.3 1.1-7.9 3.4-10.9 2.3-3 5.2-5.5 8.9-7.5 3.7-2 7.9-3.6 12.7-4.8 4.7-1.2 9.6-2 14.5-2.6V52.5c0-1.3-0.3-2.6-1-3.9 -0.7-1.2-1.5-2.3-2.5-3.3 -1-1-2.2-1.8-3.5-2.4 -1.3-0.6-2.6-0.9-3.9-0.9 -2 0-4.1 0.3-6.2 1 -2.1 0.7-4 1.5-5.8 2.3 -1.8 0.8-3.2 1.7-4.5 2.6 -1.3 0.8-2.1 1.4-2.6 1.7l-4.8-10.5c2.7-1.8 5.2-3.3 7.4-4.4 2.3-1.1 4.9-2.1 7.8-3 3-0.9 6.1-1.4 9.4-1.4 2.9 0 5.8 0.5 8.8 1.4 2.9 0.9 5.5 2.3 7.8 4.1 2.3 1.9 4.1 4.2 5.6 6.9C358 45.5 358.7 48.8 358.7 52.5" class="b"/><path d="M406.3 89.8c2.9 0 5.6-0.6 8.3-1.8 2.6-1.2 4.9-2.8 6.9-4.9 2-2 3.6-4.4 4.9-7.1 1.2-2.7 1.9-5.6 1.9-8.6 0-3.1-0.6-6-1.9-8.6 -1.2-2.7-2.9-5-4.9-7 -2-2-4.4-3.6-7-4.7 -2.6-1.1-5.4-1.7-8.2-1.7 -1.5 0-3.4 0.1-5.5 0.5 -2.1 0.3-4.1 0.8-6 1.5 -1.9 0.8-3.5 1.6-4.8 2.6 -1.3 1.1-2 2.3-2 3.7v25.9c0 1.1 0.6 2.3 1.8 3.5 1.3 1.2 2.7 2.4 4.6 3.4 1.8 1 3.8 1.8 6 2.5 2.2 0.6 4.1 0.9 6 0.9V89.8zM406.3 32.4c5.3 0 10.2 0.9 14.6 2.6 4.4 1.8 8.2 4.2 11.3 7.2 3.1 3.1 5.6 6.8 7.3 11 1.8 4.3 2.6 8.9 2.6 14.1 0 4.9-0.9 9.6-2.7 13.9 -1.8 4.3-4.3 8-7.5 11.3 -3.2 3.2-7 5.8-11.4 7.7 -4.4 1.9-9.2 2.9-14.3 2.9 -3 0-5.9-0.5-8.7-1.4 -2.9-0.9-6-2.7-9.6-5.2v4.9h-12.8V3.4h12.8v34.9c3.6-2.1 6.8-3.6 9.6-4.5C400.5 32.9 403.4 32.4 406.3 32.4" class="b"/><path d="M475.8 101.5h-12.8V35h12.8V101.5zM470.2 2.9c2.8 0.2 5 1.3 6.8 3.2 1.8 1.9 2.7 4.3 2.8 7 0 2.8-1 5.2-3 7.2 -2 2.1-4.4 3-7.2 2.9 -2.8-0.1-5.1-1.1-6.9-3.2 -1.8-2-2.7-4.4-2.7-7 0-2.8 1-5.2 2.9-7.3C464.9 3.8 467.3 2.8 470.2 2.9" class="b"/><path d="M558.3 56v45.5H545.5V59.1c0-2.5-0.5-4.6-1.5-6.3 -1-1.7-2.3-3.2-3.8-4.4 -1.5-1.2-3.3-2-5.2-2.6 -2-0.6-3.9-0.9-5.9-0.9 -1.9 0-3.8 0.3-5.9 0.8 -2.1 0.5-3.9 1.4-5.6 2.6 -1.7 1.2-3.1 2.7-4.2 4.5 -1.1 1.8-1.7 4-1.7 6.4v42.4h-12.8V35h12.8v4.3c3.6-3 7-4.9 10.1-5.9 3.2-0.9 6.2-1.4 9.2-1.4 3.9 0 7.6 0.5 10.9 1.6 3.3 1 6.2 2.6 8.6 4.6 2.4 2.1 4.3 4.5 5.7 7.6C557.6 48.8 558.3 52.2 558.3 56" class="b"/><path d="M589.3 57.7h37.4c-4.3-9.3-10.3-13.9-18.2-13.9 -4.1 0-7.8 1.1-10.9 3.3 -3.2 2.2-5.9 5.8-8.2 10.7V57.7zM608.9 31.8c5.3 0 9.9 1 13.9 2.9 4 1.9 7.4 4.6 10.1 8 2.7 3.3 4.8 7.2 6.3 11.7 1.5 4.5 2.3 9.3 2.6 14.4H587.9c0.9 7.2 3.4 12.7 7.4 16.4 4 3.8 9.1 5.7 15.1 5.7 4.8 0 9.2-0.9 13-2.8 3.9-1.9 8.2-4.6 13-8.2l3.2 13.4c-4.3 3-9.1 5.4-14.5 7.3 -5.3 1.9-10.5 2.8-15.4 2.8 -5.8 0-10.9-0.9-15.3-2.7 -4.5-1.8-8.3-4.3-11.4-7.6 -3.1-3.3-5.4-7.2-7.1-11.7 -1.6-4.5-2.5-9.5-2.5-14.9 0-5.1 0.8-9.8 2.5-14.1 1.7-4.3 4-8 7.1-11 3.1-3.1 6.8-5.5 11.2-7.2C598.7 32.6 603.5 31.8 608.9 31.8" class="b"/><path d="M702.4 35v11.6h-27.8v32.2c0 3.8 1.1 6.7 3.3 8.7 2.2 2 4.9 3 8.2 3 0.9 0 1.8 0 2.5-0.1 0.7-0.1 1.4-0.3 2.2-0.5 0.8-0.2 1.6-0.6 2.6-1.1 1-0.5 2.2-1.1 3.8-1.9l4.3 10.3c-3.2 1.6-6.5 2.9-9.9 4.2 -3.4 1.3-6.5 1.9-9.3 1.9 -6.8 0-11.9-2-15.4-6 -3.5-4-5.3-9.1-5.3-15.2v-35.5h-15.4V35h15.4V21.6l12.8-4v17.6L702.4 35z" class="b"/><path d="M828.2 89.3l-40.1-34.9h-32.6l47.3 34.9H828.2zM860.3 167.6c-3.3-9.9-8-18.6-14-26 -6.1-7.4-13.5-13.3-22.4-17.7 -8.9-4.3-19.2-6.5-30.9-6.5 -11.9 0-22.7 1.9-32.4 5.7 -9.7 3.8-18 9.1-24.8 15.9 -6.9 6.8-12.1 15-15.8 24.5 -3.7 9.5-5.5 19.9-5.5 31.4 0 12.1 1.8 23.1 5.5 33.1 3.7 9.9 8.9 18.5 15.8 25.8 6.9 7.3 15.2 13 25.2 17 10 4 21.3 6 34.1 6 11 0 22.4-2.1 34.3-6.4 11.9-4.2 22.6-9.6 32.2-16.3l-7.2-29.8c-10.7 8-20.4 14.1-28.9 18.2 -8.5 4.1-18.2 6.2-28.9 6.2 -13.5 0-24.7-4.2-33.6-12.5 -8.9-8.4-14.4-20.5-16.5-36.5h119.6C865.5 188.3 863.6 177.6 860.3 167.6zM749.6 175c5-10.8 11-18.6 18-23.5 7.1-4.9 15.2-7.3 24.3-7.3 17.6 0 31.1 10.3 40.5 30.8H749.6zM990 206.7c-2.3-4.9-5.3-9-9.1-12.4 -3.7-3.3-8.2-5.9-13.2-7.9 -5-2-10.2-3.6-15.4-5 -2.5-0.4-5.1-1-7.7-1.7 -2.7-0.7-5.2-1.3-7.7-1.7 -2.5-0.5-4.9-1-7.2-1.5 -2.3-0.6-4.5-1.2-6.5-1.9 -3.9-1.4-7.3-3.3-10.1-5.6 -2.9-2.4-4.3-5.8-4.3-10.1 0-3.2 1-5.8 2.9-7.9 2-2.1 4.2-3.6 6.9-4.6 2.6-1 5.4-1.7 8.4-2.1 2.9-0.4 5.5-0.5 7.6-0.5 7.3 0 14.4 1.4 21.2 4.1 6.9 2.7 14.3 7.2 22.3 13.4l9.9-27.1c-3.7-2.1-7.8-4.2-12.3-6.3 -4.6-2.2-9.3-4.1-14.2-5.9 -4.9-1.7-9.8-3.1-14.7-4.1 -4.9-1-9.4-1.6-13.5-1.6 -7.5 0-14.6 1-21.3 3.1 -6.6 2.1-12.5 5.1-17.6 8.9 -5.2 3.9-9.2 8.6-12.2 14.2 -3 5.6-4.5 12-4.5 19.4 0 6.6 1.1 12.2 3.2 16.8 2.2 4.6 5.1 8.4 8.7 11.5 3.6 3.1 7.9 5.5 12.9 7.2 4.9 1.7 10 3.1 15.2 4.3l15.4 3.1c1.4 0.2 2.7 0.4 4.1 0.5 1.4 0.1 2.6 0.3 3.8 0.5 2.3 0 4.1 0.3 5.5 1 4.5 1.8 8.4 4.2 11.5 7 3.1 2.9 4.6 6.7 4.6 11.5 0 4.1-1.1 7.6-3.2 10.6 -2.2 2.9-4.9 5.4-8.1 7.4 -3.2 1.9-6.6 3.4-10.1 4.3 -3.6 0.9-6.8 1.4-9.8 1.4 -4.1 0-7.8-0.2-11.2-0.7 -3.3-0.5-6.5-1.3-9.6-2.4 -3.1-1.1-6.3-2.7-9.6-4.8 -3.3-2-7.1-4.7-11.5-7.9l-13.4 23.7c8.7 6.6 17.3 11.5 25.9 14.6 8.6 3.1 17.9 4.6 27.9 4.6 8.2 0 16.1-1.2 23.6-3.4 7.6-2.3 14.3-5.7 20.2-10.1 5.9-4.5 10.7-9.9 14.2-16.3 3.5-6.4 5.3-13.6 5.3-21.6C993.4 217.6 992.3 211.6 990 206.7zM423.9 121.2c-5.9 0-11.4 1.4-16.3 4.1 -4.9 2.7-10.9 7.1-18 13v-13.7h-28.5v147.7h28.5v-83.3c0-5.5 0.7-10.6 2-15.4 1.4-4.8 3.5-9 6.4-12.7 2.8-3.6 6.5-6.6 11-8.7 4.5-2.2 9.7-3.3 15.6-3.3 2.9 0 6.3 0.6 10.1 1.7 3.8 1.2 6.8 2.2 9.1 3.3 2.3 1 3.6 1.6 4.1 1.9l12.3-25.4c-5.9-3.2-11.8-5.5-17.6-7C436.7 121.9 430.5 121.2 423.9 121.2zM343.1 167.6c-3.3-9.9-8-18.6-14.1-26 -6-7.4-13.5-13.3-22.4-17.7 -8.9-4.3-19.2-6.5-30.8-6.5 -11.9 0-22.7 1.9-32.4 5.7 -9.7 3.8-18 9.1-24.8 15.9 -6.9 6.8-12.1 15-15.8 24.5 -1.4 3.7-2.5 7.5-3.3 11.5h-22.3V0h-30.2v175H30.4V0H0.3v272.3h30.2v-72.7h116.5v72.7h30.2v-72.7h20.4c0.4 10.2 2.1 19.7 5.3 28.3 3.7 9.9 8.9 18.5 15.8 25.8 6.9 7.3 15.3 13 25.2 17 9.9 4 21.3 6 34.1 6 11 0 22.4-2.1 34.3-6.4 11.9-4.2 22.6-9.6 32.2-16.3l-7.2-29.8c-10.8 8-20.4 14.1-29 18.2 -8.6 4.1-18.2 6.2-28.9 6.2 -13.5 0-24.7-4.2-33.6-12.5 -8.9-8.4-14.4-20.5-16.4-36.5h119.6C348.3 188.3 346.4 177.6 343.1 167.6zM232.5 175c5-10.8 11-18.6 18-23.5 7.1-4.9 15.2-7.3 24.3-7.3 17.6 0 31.1 10.3 40.4 30.8H232.5zM685 130.4c-5.5-4.1-11.9-7.2-19.2-9.2 -7.3-2.1-15.1-3.1-23.3-3.1 -9.8 0-19.5 1.9-28.9 5.8 -9.5 3.9-18.5 9.8-27.2 17.8 -6.4-7.5-13.4-13.4-21.1-17.5 -7.7-4.1-15.6-6.2-23.8-6.2 -6.8 0-13.5 1.2-20 3.6 -6.5 2.4-13.9 6.5-22.1 12.2v-9.2h-28.5v147.7h28.5v-94.2c0-5.5 1.2-10.2 3.6-14.2 2.4-4 5.5-7.3 9.3-9.9 3.8-2.6 7.9-4.5 12.3-5.7 4.5-1.1 8.7-1.7 12.9-1.7 4.3 0 8.6 0.6 12.8 1.9 4.2 1.2 7.9 3.2 11.1 5.8 3.2 2.6 5.8 5.9 7.9 9.8 2.1 3.9 3.1 8.6 3.1 14.1v94.2h28.4v-94.2c0-5.7 1.1-10.6 3.4-14.6 2.3-4 5.2-7.3 8.7-9.8 3.5-2.5 7.5-4.3 12-5.5 4.4-1.1 8.8-1.7 13.2-1.7 4.6 0 9 0.6 13.4 1.7 4.3 1.1 8.2 3 11.5 5.5 3.3 2.5 6 5.8 8.1 9.8 2.1 4 3.1 8.9 3.1 14.6v94.2h28.4v-104.5c0-8.4-1.5-15.8-4.6-21.9C694.7 139.7 690.5 134.6 685 130.4z" class="c"/><rect y="362.9" width="636.3" height="5.9" class="a"/><path d="M659 336.6c0-0.7 0.5-1.3 1.2-1.3h15.7c13.2 0 23.9 10.7 23.9 23.8 0 13.2-10.8 23.9-23.9 23.9h-15.7c-0.7 0-1.2-0.6-1.2-1.3V336.6zM675 376.6c10 0 17.3-7.4 17.3-17.5 0-10-7.3-17.3-17.3-17.3h-9v34.8H675z" class="c"/><path d="M718.3 355.1c7.1 0 12.6 5.3 12.6 12.6 0 0.5-0.1 1.4-0.1 1.8 -0.1 0.7-0.6 1.2-1.2 1.2h-18.6c0.2 3.7 3.4 7.3 7.8 7.3 2.5 0 4.7-1.1 6.1-2 0.8-0.5 1.3-0.7 1.8-0.1l1.9 2.6c0.5 0.5 0.7 1.1-0.1 1.8 -2 1.7-5.5 3.4-10.1 3.4 -8.3 0-13.7-6.5-13.7-14.3C704.6 361.7 710.1 355.1 718.3 355.1zM724.5 366.4c-0.2-3.3-2.9-6.1-6.3-6.1 -3.7 0-6.5 2.7-7 6.1H724.5z" class="c"/><path d="M743.9 402.2c0 0.8-0.5 1.3-1.4 1.3h-3.8c-0.7 0-1.3-0.6-1.3-1.3v-45.2c0-0.7 0.6-1.3 1.3-1.3h2c0.5 0 0.9 0.3 1.2 0.9l0.7 1.8c0.5-0.5 3.3-3.3 8.3-3.3 7.5 0 13 6.5 13 14.4 0 8-5.9 14.3-13.3 14.3 -3.5 0-6.2-1.6-6.7-1.8V402.2zM749.8 377.9c4.5 0 7.8-3.8 7.8-8.4 0-4.6-2.9-8.5-7.5-8.5 -4 0-6 3.1-6.3 4v10.9C743.8 375.9 746.2 377.9 749.8 377.9z" class="c"/><path d="M770.4 357.1c0-0.7 0.6-1.3 1.3-1.3h3.9c0.7 0 1.3 0.6 1.3 1.3v14c0 4.4 2.1 6.8 5.6 6.8 4 0 6.5-3.3 6.8-4.5v-16.3c0-1.1 0.5-1.3 1.5-1.3h3.5c0.7 0 1.3 0.6 1.3 1.3v24.7c0 0.7-0.6 1.3-1.3 1.3h-1.9c-0.7 0-1-0.5-1.2-1.1l-0.7-2c-0.6 0.5-3.5 3.8-9 3.8 -8.2 0-11-5.8-11-12.9V357.1z" class="c"/><path d="M803.7 340.7c0-2.3 1.7-4 3.9-4 2.3 0 4 1.8 4 4 0 2.2-1.8 4-4 4C805.4 344.6 803.7 342.9 803.7 340.7zM804.4 357.1c0-0.7 0.6-1.3 1.3-1.3h3.9c0.7 0 1.3 0.6 1.3 1.3v24.7c0 0.7-0.6 1.3-1.3 1.3h-3.9c-0.7 0-1.3-0.6-1.3-1.3V357.1z" class="c"/><path d="M818.1 379.5l1.4-2.7c0.3-0.5 1-0.7 1.7-0.3 0 0 3 1.8 6.3 1.8 2 0 3.3-0.8 3.3-2.3 0-1.8-1.5-2.7-5.3-4.4 -4.2-1.8-7.8-4.4-7.8-8.9 0-3.4 2.8-7.5 9.3-7.5 3.8 0 6.7 1.2 8 2.1 0.6 0.4 1 1.3 0.5 2l-1.2 2.3c-0.3 0.6-1.2 0.8-1.8 0.5 0 0-3-1.4-5.6-1.4 -2.3 0-3.1 1-3.1 2 0 1.8 1.7 2.5 4.4 3.7 5 2.2 9.1 4.3 9.1 9.4 0 4.2-4 8-10.1 8 -4.6 0-7.6-1.6-9-2.8C818.1 380.7 817.9 380 818.1 379.5z" class="c"/><path d="M864.7 347.1l-5.5 2.6c-0.6 0.3-1.3 0.1-1.5-0.5l-0.8-2.4c-0.2-0.5-0.1-1.1 0.2-1.4l9.7-8.8h3.3c0.7 0 1.2 0.6 1.2 1.3v43.8c0 0.7-0.5 1.3-1.2 1.3h-4.2c-0.7 0-1.3-0.6-1.3-1.3V347.1z" class="c"/><path d="M887.5 378.5c3.1-1 14-6.7 16.3-15 -0.6 0.3-4.6 2.5-9.1 2.5 -7.3 0-14.3-5.4-14.3-14.8 0-8.6 7-15.6 15.3-15.6 10.8 0 16 8.6 16 19.2 0 19-16.3 27-22.6 29.5 -0.8 0.3-1.4-0.1-1.7-0.8l-1.2-2.9C885.9 379.7 886.2 379 887.5 378.5zM905.1 355.3c0.6-5.7-2-13.6-9.4-13.6 -5 0-9 4.4-9 9.4 0 5.2 4 9.3 9.1 9.3C901.2 360.5 904.8 356.5 905.1 355.3z" class="c"/><path d="M927 359.2v-0.2c-2.9-1.5-7-5.3-7-10.6 0-7.5 6.3-12.5 14.5-12.5 8.4 0 14.6 5 14.6 12.5 0 5.3-4.1 9-7 10.5v0.3c3.1 1.4 8.3 5.5 8.3 11.4 0 7.4-6 13.1-15.9 13.1 -9.5 0-15.6-5.7-15.6-13.1C918.7 364.7 924.5 360.4 927 359.2zM934.4 378.2c4.8 0 8.7-2.9 8.7-7.4 0-3.6-3.1-7.4-8.7-8.2 -5.5 0.8-8.7 4.6-8.7 8.2C925.8 375.3 929.9 378.2 934.4 378.2zM942.1 348.7c0-4.2-3.3-7.2-7.8-7.2 -4.1 0-7.4 3-7.4 7.2 0 3.7 2.3 6.5 7.6 7.3C939.7 355.3 942.1 352.4 942.1 348.7z" class="c"/><path d="M958.6 359.9c0-14.9 6.1-23.9 16.9-23.9 10.7 0 16.8 8.9 16.8 23.9s-6.1 23.9-16.8 23.9C964.8 383.7 958.6 374.8 958.6 359.9zM985.5 359.9c0-11.2-3.6-17.6-10-17.6 -6.4 0-10 6.4-10 17.6 0 11.3 3.6 17.7 10 17.7C981.9 377.5 985.5 371.2 985.5 359.9z" class="c"/></svg>